<?xml version="1.0" encoding="utf-8"?>
<!-- Generator: Adobe Illustrator 23.0.3, SVG Export Plug-In . SVG Version: 6.00 Build 0)  -->
<svg version="1.1" id="Layer_1" xmlns="http://www.w3.org/2000/svg" xmlns:xlink="http://www.w3.org/1999/xlink" x="0px" y="0px"
	 viewBox="0 0 300 300" style="enable-background:new 0 0 300 300;" xml:space="preserve">
<title>white_tilda_logoAsset 2</title>
<g>
	<path d="M157.3,133.1v104h-19.4V125.8L157.3,133.1z"/>
	<path d="M79.8,123.4c0-26.6,14.5-41.1,31.5-41.1s19.4,2.4,38.7,12.1s24.2,12.1,33.9,12.1c9.7,0,14.5-7.3,14.5-21.8h16.9
		c2.4,29-14.5,41.1-31.5,41.1s-21.8-2.4-38.7-12.1s-21.8-12.1-31.5-12.1s-14.5,7.3-16.9,24.2L79.8,123.4z"/>
	<path d="M150,300C67.3,300,0,232.7,0,150C0,67.3,67.3,0,150,0c82.7,0,150,67.3,150,150C300,232.7,232.7,300,150,300z M150,9.7
		C72.6,9.7,9.7,72.6,9.7,150S72.6,290.3,150,290.3S290.3,227.4,290.3,150S227.4,9.7,150,9.7z"/>
</g>
</svg>
