<svg width="10" height="11" viewBox="0 0 10 11" fill="none" xmlns="http://www.w3.org/2000/svg">
<path d="M4.99995 6.40418C4.11245 6.40418 3.38745 5.68335 3.38745 4.79168C3.38745 3.90002 4.11245 3.18335 4.99995 3.18335C5.88745 3.18335 6.61245 3.90418 6.61245 4.79585C6.61245 5.68752 5.88745 6.40418 4.99995 6.40418ZM4.99995 3.80835C4.45828 3.80835 4.01245 4.25002 4.01245 4.79585C4.01245 5.34168 4.45412 5.78335 4.99995 5.78335C5.54578 5.78335 5.98745 5.34168 5.98745 4.79585C5.98745 4.25002 5.54162 3.80835 4.99995 3.80835Z" fill="url(#paint0_linear_1502_191)"/>
<path d="M4.99995 9.98325C4.38328 9.98325 3.76245 9.74992 3.27912 9.28742C2.04995 8.10409 0.691618 6.21659 1.20412 3.97075C1.66662 1.93325 3.44578 1.02075 4.99995 1.02075C4.99995 1.02075 4.99995 1.02075 5.00412 1.02075C6.55828 1.02075 8.33745 1.93325 8.79995 3.97492C9.30828 6.22075 7.94995 8.10409 6.72078 9.28742C6.23745 9.74992 5.61662 9.98325 4.99995 9.98325ZM4.99995 1.64575C3.78745 1.64575 2.22912 2.29159 1.81662 4.10825C1.36662 6.07075 2.59995 7.76242 3.71662 8.83325C4.43745 9.52909 5.56662 9.52909 6.28745 8.83325C7.39995 7.76242 8.63328 6.07075 8.19162 4.10825C7.77495 2.29159 6.21245 1.64575 4.99995 1.64575Z" fill="url(#paint1_linear_1502_191)"/>
<defs>
<linearGradient id="paint0_linear_1502_191" x1="4.99995" y1="3.18335" x2="4.99995" y2="6.40418" gradientUnits="userSpaceOnUse">
<stop stop-color="#353535" stop-opacity="0.8"/>
<stop offset="1" stop-color="#353535"/>
</linearGradient>
<linearGradient id="paint1_linear_1502_191" x1="5.00124" y1="1.02075" x2="5.00124" y2="9.98325" gradientUnits="userSpaceOnUse">
<stop stop-color="#353535" stop-opacity="0.8"/>
<stop offset="1" stop-color="#353535"/>
</linearGradient>
</defs>
</svg>
