<svg width="10" height="11" viewBox="0 0 10 11" fill="none" xmlns="http://www.w3.org/2000/svg">
<path d="M7.08337 9.35421H2.91671C1.39587 9.35421 0.520874 8.47921 0.520874 6.95837V4.04171C0.520874 2.52087 1.39587 1.64587 2.91671 1.64587H7.08337C8.60421 1.64587 9.47921 2.52087 9.47921 4.04171V6.95837C9.47921 8.47921 8.60421 9.35421 7.08337 9.35421ZM2.91671 2.27087C1.72504 2.27087 1.14587 2.85004 1.14587 4.04171V6.95837C1.14587 8.15004 1.72504 8.72921 2.91671 8.72921H7.08337C8.27504 8.72921 8.85421 8.15004 8.85421 6.95837V4.04171C8.85421 2.85004 8.27504 2.27087 7.08337 2.27087H2.91671Z" fill="url(#paint0_linear_1015_9754)"/>
<path d="M4.99987 5.86249C4.64987 5.86249 4.2957 5.75415 4.02487 5.53332L2.7207 4.49165C2.58737 4.38332 2.56237 4.18749 2.6707 4.05415C2.77903 3.92082 2.97487 3.89582 3.1082 4.00416L4.41237 5.04582C4.72903 5.29999 5.26653 5.29999 5.5832 5.04582L6.88737 4.00416C7.0207 3.89582 7.2207 3.91665 7.32487 4.05415C7.4332 4.18749 7.41237 4.38749 7.27487 4.49165L5.9707 5.53332C5.70403 5.75415 5.34987 5.86249 4.99987 5.86249Z" fill="url(#paint1_linear_1015_9754)"/>
<defs>
<linearGradient id="paint0_linear_1015_9754" x1="5.00004" y1="1.64587" x2="5.00004" y2="9.35421" gradientUnits="userSpaceOnUse">
<stop stop-color="#353535" stop-opacity="0.8"/>
<stop offset="1" stop-color="#353535"/>
</linearGradient>
<linearGradient id="paint1_linear_1015_9754" x1="4.99844" y1="3.93506" x2="4.99844" y2="5.86249" gradientUnits="userSpaceOnUse">
<stop stop-color="#353535" stop-opacity="0.8"/>
<stop offset="1" stop-color="#353535"/>
</linearGradient>
</defs>
</svg>
